 http://www.shotpix.com/images/41712854953629256492.jpg

General
Complete name                            : Nicki Minaj - Va Va Voom (Explicit) 720p [Sbyky].mp4
Format                                   : MPEG-4
Format profile                           : Base Media / Version 2
Codec ID                                 : mp42
File size                                : 50.5 MiB
Duration                                 : 3mn 19s
Overall bit rate mode                    : Variable
Overall bit rate                         : 2 119 Kbps
Encoded date                             : UTC 2012-10-25 12:02:45
Tagged date                              : UTC 2012-10-25 12:02:45
gsst                                     : 0
gstd                                     : 200085
gssd                                     : B4A7D0081HH1357546996436829
gshh                                     :

Video
ID                                       : 1
Format                                   : AVC
Format/Info                              : Advanced Video Codec
Format profile                           : High@L3.1
Format settings, CABAC                   : Yes
Format settings, ReFrames                : 1 frame
Codec ID                                 : avc1
Codec ID/Info                            : Advanced Video Coding
Duration                                 : 3mn 19s
Bit rate                                 : 1 925 Kbps
Maximum bit rate                         : 7 367 Kbps
Width                                    : 1 280 pixels
Height                                   : 720 pixels
Display aspect ratio                     : 16:9
Frame rate mode                          : Constant
Frame rate                               : 23.976 fps
Color space                              : YUV
Chroma subsampling                       : 4:2:0
Bit depth                                : 8 bits
Scan type                                : Progressive
Bits/(Pixel*Frame)                       : 0.087
Stream size                              : 45.9 MiB (91%)
Tagged date                              : UTC 2012-10-25 12:02:45

Audio
ID                                       : 2
Format                                   : AAC
Format/Info                              : Advanced Audio Codec
Format profile                           : LC
Codec ID                                 : 40
Duration                                 : 3mn 19s
Bit rate mode                            : Variable
Bit rate                                 : 192 Kbps
Maximum bit rate                         : 202 Kbps
Channel(s)                               : 2 channels
Channel positions                        : Front: L R
Sampling rate                            : 44.1 KHz
Compression mode                         : Lossy
Stream size                              : 4.58 MiB (9%)
Title                                    : IsoMedia File Produced by Google, 5-11-2011
Encoded date                             : UTC 2012-10-25 12:02:45
Tagged date                              : UTC 2012-10-25 12:02:45

Shared By Sbyky 
http://www.shotpix.com/images/65449402944248708647.gif